<svg xmlns="http://www.w3.org/2000/svg" width="100" height="71" viewBox="0 0 100 71">
  <g id="Group_2" data-name="Group 2" transform="translate(-177 -423)">
    <g id="brazil" transform="translate(176.665 423.024)">
      <rect id="Rectangle_1" data-name="Rectangle 1" width="100" height="71" transform="translate(0.335 -0.024)" fill="#00923f"/>
      <path id="Path_1" data-name="Path 1" d="M8541.755,8500,8500,8526.662l41.755,26.663,41.756-26.663Z" transform="translate(-8491.729 -8490.903)" fill="#f8c300" fill-rule="evenodd"/>
      <circle id="Ellipse_1" data-name="Ellipse 1" cx="17.5" cy="17.5" r="17.5" transform="translate(32.335 17.976)" fill="#28166f"/>
      <path id="Path_2" data-name="Path 2" d="M34606.254,27964.871l.211.539.57.035-.441.371.141.559-.48-.309-.492.309.145-.559-.445-.371.578-.035Zm13.133,1.879.18.457.492.031-.379.313.125.473-.418-.258-.414.258.117-.473-.375-.312.492-.031Zm-1.883,1.457.219.535.57.035-.445.367.145.559-.488-.309-.484.309.141-.559-.441-.367.574-.035Zm-.7-1.887.254.637.68.043-.527.438.172.656-.578-.363-.574.363.164-.656-.52-.437.68-.043Zm-.133,3.285.211.531.574.039-.445.367.145.559-.484-.309-.488.309.141-.559-.441-.367.574-.039Zm-1.648.863.184.453.488.035-.379.313.125.477-.418-.262-.414.262.121-.477-.375-.312.484-.035Zm-1.691,1.57.215.539.574.035-.441.371.141.555-.488-.312-.484.313.141-.555-.441-.371.574-.035Zm-.02,1.973.18.453.492.031-.375.316.121.477-.418-.266-.414.266.125-.477-.383-.316.492-.031Zm-.023-3.559.18.453.492.031-.383.316.121.477-.41-.266-.418.266.121-.477-.375-.316.488-.031Zm-2.078.4.184.461.488.031-.375.313.121.477-.418-.262-.41.262.121-.477-.383-.312.492-.031Zm-1.328-16.859.25.633.684.043-.52.438.164.66-.578-.367-.574.367.168-.66-.523-.437.68-.043Zm-.273,18.469.211.539.574.035-.445.371.145.555-.484-.3-.492.3.145-.555-.445-.371.578-.035Zm-.984-13.133.188.461.488.031-.379.313.125.477-.422-.262-.41.262.121-.477-.383-.312.492-.031Zm-.461,11.086.18.453.492.031-.379.316.117.477-.41-.266-.414.266.117-.477-.375-.316.492-.031Zm-3.527-7.051.211.539.574.035-.445.363.145.563-.484-.309-.488.309.141-.562-.441-.363.578-.035Zm-.1,4.984.25.637.684.043-.531.434.168.664-.57-.363-.582.363.172-.664-.527-.434.684-.043Zm.055,6.355.1.246.258.016-.2.168.066.254-.223-.141-.219.141.063-.254-.2-.168.262-.016Zm-1.105-8.4.133.348.367.02-.285.234.094.355-.309-.2-.312.2.09-.355-.285-.234.367-.02Zm-1.285-1.105.18.453.488.031-.375.316.117.477-.41-.266-.422.266.125-.477-.379-.316.492-.031Zm-4.566-4.2.211.535.578.035-.441.371.141.555-.488-.309-.484.309.141-.555-.441-.371.57-.035Zm-.516,8.875.25.633.684.043-.523.438.172.664-.582-.367-.578.367.172-.664-.527-.437.684-.043Zm-1.93-3.5.215.535.57.039-.441.363.141.559-.484-.309-.488.309.148-.559-.449-.363.578-.039Zm-.637,1.973.18.461.492.027-.375.313.117.477-.414-.262-.41.262.117-.477-.379-.312.492-.027Zm-1.309-4.488.137.34.363.027-.285.23.1.355-.312-.2-.312.2.094-.355-.281-.23.363-.027Zm-1.613.707.25.633.688.043-.531.438.168.66-.574-.363-.578.363.172-.66-.527-.437.684-.043Zm-1.449-7.312.254.637.684.043-.527.438.172.66-.582-.363-.578.363.172-.66-.527-.437.684-.043Zm-.395,8.98.215.539.57.035-.441.371.141.555-.484-.309-.488.309.141-.555-.441-.371.578-.035Z" transform="translate(-34554.48 -27925.326)" fill="#fff" fill-rule="evenodd"/>
      <path id="Path_3" data-name="Path 3" d="M33213.367,27250.371a41.872,41.872,0,0,1,27.406,10.191,17.562,17.562,0,0,0,.531-2.641,44.2,44.2,0,0,0-27.937-9.922,45.024,45.024,0,0,0-5.414.328,17.239,17.239,0,0,0-.953,2.527A41.84,41.84,0,0,1,33213.367,27250.371Z" transform="translate(-33173.871 -27220.039)" fill="#fff" fill-rule="evenodd"/>
      <path id="Path_4" data-name="Path 4" d="M34713.422,27691.01a.628.628,0,0,0,.145.395.382.382,0,0,0,.328.113.394.394,0,0,0,.316-.172.62.62,0,0,0,.082-.41.637.637,0,0,0-.152-.391.441.441,0,0,0-.645.055A.643.643,0,0,0,34713.422,27691.01Zm-.332.031a.856.856,0,0,1,.156-.617.716.716,0,0,1,.535-.27.732.732,0,0,1,.578.172.861.861,0,0,1,.258.582.848.848,0,0,1-.156.621.723.723,0,0,1-.535.27.742.742,0,0,1-.582-.176A.85.85,0,0,1,34713.09,27691.041Zm2.551-.289.383-.016a.3.3,0,0,0,.18-.055.219.219,0,0,0,.051-.16.185.185,0,0,0-.062-.152.24.24,0,0,0-.168-.051l-.4.016Zm-.289.891-.059-1.57.766-.023a.581.581,0,0,1,.383.094.45.45,0,0,1,.133.332.421.421,0,0,1-.051.242.323.323,0,0,1-.172.141.247.247,0,0,1,.152.105.556.556,0,0,1,.059.23l.012.184v0c0,.094.027.152.07.168v.051l-.355.012a.17.17,0,0,1-.027-.082.727.727,0,0,1-.02-.117l-.012-.164a.27.27,0,0,0-.059-.191.231.231,0,0,0-.18-.047l-.34.012.02.609Zm2.309-.352.262,0a.375.375,0,0,0,.324-.113.59.59,0,0,0,.113-.379.683.683,0,0,0-.086-.387.365.365,0,0,0-.293-.129l-.3-.008Zm-.32.277.031-1.57.617.012a.7.7,0,0,1,.531.2.881.881,0,0,1,.168.6,1.017,1.017,0,0,1-.074.375.61.61,0,0,1-.2.262.521.521,0,0,1-.215.1,1.3,1.3,0,0,1-.336.027Zm1.988.035.086-1.566,1.141.063-.016.27-.816-.043-.023.332.754.043-.016.266-.75-.039-.023.4.859.047-.016.289Zm1.852.105.164-1.559.473.051.184,1.223.434-1.152.477.047-.168,1.559-.3-.031.137-1.258-.449,1.227-.332-.035-.187-1.293-.133,1.258Zm4.152.539.328-1.535,1.113.238-.055.266-.8-.172-.07.328.73.156-.055.266-.738-.16-.078.395.836.18-.059.285Zm4.148.094.3.082a.282.282,0,0,0,.191,0,.217.217,0,0,0,.1-.152.231.231,0,0,0-.012-.18.227.227,0,0,0-.148-.1l-.316-.086Zm-.074.273-.141.539-.312-.082.4-1.516.676.184a.533.533,0,0,1,.137.945.468.468,0,0,1-.375.035Zm1.883.25.367.109a.274.274,0,0,0,.184.008.191.191,0,0,0,.1-.137.183.183,0,0,0,0-.164.261.261,0,0,0-.145-.1l-.379-.113Zm-.566.746.461-1.5.727.219a.56.56,0,0,1,.332.215.406.406,0,0,1,.02.359.435.435,0,0,1-.129.215.281.281,0,0,1-.2.074.214.214,0,0,1,.1.145.482.482,0,0,1-.02.238l-.043.18a.012.012,0,0,1,0,.008c-.027.086-.027.148.008.18l-.016.043-.34-.1v-.086a.734.734,0,0,1,.023-.113l.047-.16a.325.325,0,0,0,0-.2.243.243,0,0,0-.156-.1l-.324-.1-.18.586Zm2.391,0a.608.608,0,0,0-.027.418.392.392,0,0,0,.25.246.4.4,0,0,0,.355-.027.638.638,0,0,0,.246-.336.626.626,0,0,0,.031-.414.41.41,0,0,0-.258-.25.394.394,0,0,0-.352.023A.649.649,0,0,0,34733.113,27693.607Zm-.309-.113a.867.867,0,0,1,.4-.5.825.825,0,0,1,1.055.383.975.975,0,0,1-.418,1.133.813.813,0,0,1-1.047-.383A.856.856,0,0,1,34732.8,27693.494Zm2.9,1.84a.539.539,0,0,1-.25.082.6.6,0,0,1-.266-.047.685.685,0,0,1-.4-.422.881.881,0,0,1,.047-.633.862.862,0,0,1,.422-.473.708.708,0,0,1,.59.008.816.816,0,0,1,.387.316.584.584,0,0,1,.051.445l-.309-.133a.273.273,0,0,0-.035-.215.45.45,0,0,0-.2-.156.384.384,0,0,0-.34.016.613.613,0,0,0-.262.32.591.591,0,0,0-.047.414.382.382,0,0,0,.238.258.363.363,0,0,0,.27.02.4.4,0,0,0,.219-.18l-.328-.141.1-.242.6.254-.336.781-.2-.086Zm1.488-.043.34.172a.265.265,0,0,0,.188.031.175.175,0,0,0,.117-.117.22.22,0,0,0,.023-.16.241.241,0,0,0-.133-.121l-.352-.176Zm-.676.652.691-1.406.68.336a.537.537,0,0,1,.293.266.407.407,0,0,1-.035.355.476.476,0,0,1-.16.188.35.35,0,0,1-.211.043.231.231,0,0,1,.078.16.506.506,0,0,1-.055.23l-.074.168s0,.008,0,.008c-.043.086-.047.145-.02.18l-.023.043-.312-.156a.366.366,0,0,1,.008-.086.911.911,0,0,1,.039-.105l.07-.152a.271.271,0,0,0,.035-.2c-.012-.047-.059-.086-.133-.125l-.312-.152-.266.547Zm1.754.9.762-1.371,1,.551-.133.238-.719-.4-.16.293.652.363-.129.234-.652-.359-.2.348.754.418-.141.254Zm1.77.484.27.164a.285.285,0,0,0-.008.219.407.407,0,0,0,.184.18.35.35,0,0,0,.207.07.178.178,0,0,0,.141-.09c.047-.082-.031-.219-.23-.414l-.008-.008s-.016-.012-.023-.02a.947.947,0,0,1-.211-.258.344.344,0,0,1-.035-.187.41.41,0,0,1,.07-.207.43.43,0,0,1,.316-.219.734.734,0,0,1,.445.129.687.687,0,0,1,.3.332.5.5,0,0,1-.047.4l-.266-.16a.266.266,0,0,0,.016-.2.372.372,0,0,0-.164-.168.336.336,0,0,0-.191-.059.17.17,0,0,0-.133.086c-.043.07,0,.168.133.3.035.035.066.063.082.082.086.082.145.145.176.18s.059.078.078.113a.394.394,0,0,1,.051.2.375.375,0,0,1-.07.2.463.463,0,0,1-.336.242.7.7,0,0,1-.465-.125.733.733,0,0,1-.332-.355A.516.516,0,0,1,34740.043,27697.33Zm1.652,1.035.262.18a.249.249,0,0,0-.02.215.42.42,0,0,0,.176.191.36.36,0,0,0,.2.082.179.179,0,0,0,.141-.086c.051-.078-.012-.223-.211-.426l0-.008a.128.128,0,0,1-.023-.023.967.967,0,0,1-.2-.266.348.348,0,0,1-.027-.191.488.488,0,0,1,.082-.2.419.419,0,0,1,.332-.2.7.7,0,0,1,.438.148.649.649,0,0,1,.281.348.487.487,0,0,1-.07.395l-.258-.172a.238.238,0,0,0,.027-.2.415.415,0,0,0-.152-.176.353.353,0,0,0-.191-.066.173.173,0,0,0-.137.078c-.043.07,0,.172.121.3.031.035.059.066.074.086.074.086.137.152.168.191a1.205,1.205,0,0,1,.066.113.337.337,0,0,1,.043.2.5.5,0,0,1-.074.2.483.483,0,0,1-.352.223.879.879,0,0,1-.77-.523A.513.513,0,0,1,34741.7,27698.365Zm1.992,1.059a.6.6,0,0,0-.152.387.439.439,0,0,0,.516.391.615.615,0,0,0,.336-.25.622.622,0,0,0,.152-.391.4.4,0,0,0-.176-.309.369.369,0,0,0-.34-.078A.6.6,0,0,0,34743.688,27699.424Zm-.262-.2a.848.848,0,0,1,.527-.355.739.739,0,0,1,.582.16.715.715,0,0,1,.309.52.962.962,0,0,1-.727.957.8.8,0,0,1-.891-.672A.848.848,0,0,1,34743.426,27699.221Z" transform="translate(-34678.441 -27661.592)" fill="#00923f" fill-rule="evenodd"/>
    </g>
  </g>
</svg>
