<svg xmlns="http://www.w3.org/2000/svg" width="100" height="71" viewBox="0 0 100 71">
  <g id="Group_1" data-name="Group 1" transform="translate(-177 -423)">
    <g id="eua" transform="translate(177 423)">
      <path id="Path_5" data-name="Path 5" d="M0,.2H100V71.187H0Z" transform="translate(0 -0.191)" fill="#fff"/>
      <path id="Path_6" data-name="Path 6" d="M0,.2H100V5.663H0ZM0,11.121H100v5.463H0ZM0,22.046H100v5.463H0ZM0,32.966H100v5.463H0ZM0,43.887H100V49.35H0ZM0,54.808H100V60.27H0ZM0,65.728H100v5.463H0Z" transform="translate(0 -0.191)" fill="#bf0a30"/>
      <path id="Path_7" data-name="Path 7" d="M0,0H53.951V38.225H0Z" fill="#002868"/>
      <path id="Path_8" data-name="Path 8" d="M58.967,46.815l-.49-1.511-.486,1.511H56.4l1.29.935L57.2,49.261l1.286-.94,1.29.94-.495-1.511,1.281-.935Zm8.947,0-.49-1.511-.49,1.511H65.347l1.286.931-.495,1.511,1.286-.94,1.286.94-.49-1.511,1.281-.931Zm8.947,0-.49-1.511-.49,1.511H74.289l1.29.935-.495,1.506,1.286-.94,1.286.94-.49-1.511,1.281-.931Zm8.942,0-.49-1.511-.49,1.511H83.232l1.29.935-.495,1.511,1.286-.94,1.29.94-.495-1.511,1.286-.935H85.8Zm9.248.931,1.29-.931H94.75L94.26,45.3l-.495,1.511H92.179l1.286.935-.49,1.511,1.286-.94,1.286.94Zm8.947,0,1.286-.935H103.7l-.49-1.511-.495,1.515h-1.592l1.29.935-.49,1.511,1.286-.94,1.286.94L104,47.746ZM62.951,49.135l-.49,1.511H60.873l1.286.935-.49,1.511,1.286-.935,1.286.935-.49-1.511,1.29-.935h-1.6Zm9.437,1.511-.49-1.511-.49,1.511H69.82l1.286.935-.49,1.511,1.286-.935,1.286.935-.49-1.511,1.286-.935Zm8.942,0-.486-1.511-.49,1.511H78.763l1.29.935-.495,1.511,1.29-.935,1.286.935-.49-1.511,1.286-.935h-1.6Zm8.947,0-.49-1.511L89.3,50.646H87.71L89,51.581l-.49,1.511,1.286-.935,1.286.935-.49-1.511,1.29-.935Zm8.942,0-.49-1.511-.49,1.511H96.652l1.286.935-.49,1.511,1.286-.935,1.286.935-.49-1.511,1.286-.935ZM58.967,54.481l-.49-1.515-.486,1.515-1.592,0,1.29.935L57.2,56.927l1.286-.94,1.29.94-.495-1.515,1.29-.935Zm8.947,0-.49-1.515-.49,1.515-1.587,0,1.286.935-.495,1.515,1.286-.94,1.286.94-.49-1.515,1.286-.935-1.592,0Zm8.947,0-.49-1.515-.49,1.515-1.592,0,1.29.935-.495,1.515,1.286-.94,1.286.94-.49-1.515,1.286-.935Zm8.942,0-.49-1.515-.486,1.515-1.592,0,1.29.935-.495,1.515,1.286-.94,1.29.94-.495-1.515,1.29-.935Zm8.942,0-.49-1.515-.49,1.515-1.587,0,1.286.935-.49,1.515,1.286-.94,1.286.94-.49-1.515,1.29-.935-1.6,0Zm9.253.931,1.286-.935-1.587,0-.49-1.515-.49,1.515-1.592,0,1.29.935-.49,1.515,1.286-.94,1.286.94-.5-1.515Zm-41.048,1.2-.49,1.511H60.873l1.286.935-.49,1.511,1.286-.935,1.286.935-.49-1.511,1.29-.935h-1.6Zm9.437,1.511-.49-1.511-.49,1.511H69.82l1.286.935-.49,1.511,1.286-.935,1.286.935-.49-1.511,1.286-.935Zm8.942,0-.486-1.511-.49,1.511H78.763l1.29.935-.495,1.511,1.29-.935,1.286.935-.49-1.511,1.286-.935h-1.6Zm8.947,0-.49-1.511L89.3,58.118H87.71L89,59.053l-.49,1.511,1.286-.935,1.286.935-.49-1.511,1.29-.935Zm8.942,0-.49-1.511-.49,1.511H96.652l1.286.935-.49,1.511,1.286-.935,1.286.935-.49-1.511,1.286-.935ZM58.967,61.953l-.49-1.515-.486,1.515-1.592,0,1.29.935-.5,1.511,1.286-.935,1.29.935-.495-1.511,1.29-.935Zm8.947,0-.49-1.515-.49,1.515-1.587,0,1.286.935-.495,1.511,1.286-.935,1.286.935-.49-1.511,1.286-.935-1.592,0Zm8.947,0-.49-1.515-.49,1.515-1.592,0,1.29.935-.495,1.511,1.286-.935,1.286.935-.49-1.511,1.286-.935Zm8.942,0-.495-1.515-.486,1.515-1.592,0,1.29.935-.495,1.511,1.286-.935,1.29.935-.495-1.511,1.29-.935Zm8.942,0-.49-1.515-.49,1.515-1.587,0,1.286.935-.49,1.511,1.286-.935,1.281.935-.49-1.511,1.29-.935Zm9.253.931,1.286-.935-1.587,0-.49-1.515-.49,1.515-1.592,0,1.29.935-.49,1.511,1.286-.935,1.277.935Zm-41.048,1.3-.49,1.511H60.873l1.286.935-.49,1.511,1.286-.935,1.286.935-.49-1.511,1.29-.935h-1.6ZM72.388,65.7l-.49-1.511-.49,1.511H69.82l1.286.935-.49,1.511,1.286-.935,1.286.935-.49-1.511,1.286-.935Zm8.942,0-.486-1.511-.49,1.511H78.763l1.29.935-.495,1.511,1.29-.935,1.286.935-.49-1.511,1.286-.935h-1.6Zm8.947,0-.49-1.511L89.3,65.7H87.705l1.286.935-.49,1.511,1.286-.935,1.286.935-.49-1.511,1.29-.935h-1.6Zm8.942,0-.49-1.511-.49,1.511H96.652l1.286.935-.49,1.511,1.286-.935,1.286.935-.49-1.511,1.286-.935Zm-40.252,3.84-.49-1.515-.486,1.515-1.592,0,1.29.931L57.2,71.979l1.286-.94,1.29.94-.495-1.515,1.29-.935Zm8.947,0-.49-1.515-.49,1.515-1.587,0,1.286.931-.495,1.515,1.286-.94,1.286.94-.495-1.515,1.286-.935-1.587.009Zm8.947,0-.49-1.515-.49,1.515-1.592,0,1.29.935-.495,1.511,1.286-.94,1.286.94-.495-1.515,1.286-.935Zm8.942,0-.49-1.515-.486,1.515-1.592,0,1.29.935-.495,1.515,1.286-.94,1.29.94-.495-1.515,1.29-.935Zm8.942,0-.49-1.515-.49,1.515-1.587,0,1.286.935-.49,1.515,1.286-.94,1.286.94-.495-1.52,1.29-.935-1.6.009Zm9.253.926,1.286-.935-1.587,0-.49-1.515-.49,1.515-1.592,0,1.29.935-.49,1.515,1.286-.94,1.286.94-.5-1.515Zm-41.048,1.2-.49,1.511H60.873l1.286.935-.49,1.511,1.286-.935,1.286.935-.5-1.511,1.29-.935H63.441Zm9.437,1.511L71.9,71.66l-.49,1.511H69.82l1.286.935-.49,1.511,1.286-.935,1.286.935-.5-1.511,1.286-.935Zm8.942,0-.486-1.511-.49,1.511H78.763l1.29.935-.495,1.511,1.29-.935,1.286.935-.5-1.511,1.286-.935H81.33Zm8.947,0-.49-1.511L89.3,73.17H87.71L89,74.106l-.49,1.511,1.286-.935,1.286.935-.5-1.511,1.29-.935Zm8.942,0-.49-1.511-.49,1.511H96.652l1.286.935-.49,1.511,1.286-.935,1.286.935-.49-1.511,1.286-.935ZM58.967,77.01l-.49-1.515-.486,1.515-1.592,0,1.29.935L57.2,79.451l1.286-.935,1.29.935-.495-1.511,1.29-.935Zm8.947,0-.49-1.515-.49,1.515-1.587,0,1.286.935-.495,1.506,1.286-.935,1.286.935-.49-1.511L69.506,77l-1.592.009Zm8.947,0-.49-1.515-.49,1.515-1.592,0,1.29.935-.495,1.506,1.286-.935,1.286.935-.49-1.511L78.453,77Zm8.942,0-.49-1.515-.486,1.515-1.592,0,1.29.935-.495,1.511,1.286-.935,1.29.935-.495-1.511,1.29-.935Zm8.942,0-.49-1.515-.49,1.515-1.587,0,1.286.935-.49,1.511,1.286-.935,1.286.935-.49-1.511,1.29-.935-1.6,0Zm9.253.926L105.284,77l-1.587,0-.49-1.515-.49,1.515-1.592,0,1.29.935-.49,1.511,1.286-.935,1.286.935-.5-1.511Z" transform="translate(-53.864 -43.263)" fill="#fff"/>
    </g>
  </g>
</svg>
